Coordinates
version=1
nRows=6
nColumns=36
inDegrees=yes

Units are S.I. units (second, meters, Newtons, ...)
If the header above contains a line with 'inDegrees', this indicates whether rotational values are in degrees (yes) or radians (no).

endheader
time	pelvis_tilt	pelvis_list	pelvis_rotation	pelvis_tx	pelvis_ty	pelvis_tz	hip_flexion_r	hip_adduction_r	hip_rotation_r	knee_angle_r	knee_angle_r_beta	ankle_angle_r	subtalar_angle_r	mtp_angle_r	hip_flexion_l	hip_adduction_l	hip_rotation_l	knee_angle_l	knee_angle_l_beta	ankle_angle_l	subtalar_angle_l	mtp_angle_l	lumbar_extension	lumbar_bending	lumbar_rotation	arm_flex_r	arm_add_r	arm_rot_r	elbow_flex_r	pro_sup_r	arm_flex_l	arm_add_l	arm_rot_l	elbow_flex_l	pro_sup_l
      0.00000000	      1.94945139	     -0.67376800	     -0.21637565	     -0.92106336	      1.23332278	     -0.06418455	     -1.07930618	     -0.60171818	      3.72299556	      5.87150321	      0.10247706	      2.60194982	     -8.94672459	     -5.47529731	     -2.54923864	     -2.51863315	      1.22577301	      2.59039165	      0.04521086	      6.94556721	     -0.70417386	     -5.47529731	    -13.38123803	      1.75611113	     -2.08042375	      7.93347131	    -11.04353463	     24.72051530	     24.37420552	     69.89957902	      1.93899910	    -10.36980035	     17.45602555	     33.97836016	     70.01186228
      0.00416670	      0.44488393	     -0.49384346	      0.05495495	     -0.92002354	      1.23155104	     -0.06448658	      0.29029932	     -0.57223960	      4.72342619	      5.49715754	      0.09594350	      4.72550476	     -7.39974172	     -5.66825373	     -1.00024061	     -1.96463942	      2.48311940	      2.38744434	      0.04166876	      6.09891518	     -0.28627819	     -5.66825373	    -10.85974908	      1.58580616	     -1.87550265	      7.28486030	    -10.86392286	     24.77127356	     23.78054755	     69.80035100	      1.68343343	    -10.34618393	     17.93158029	     34.27387370	     69.94154130
      0.00833330	     -0.49617956	      0.10004488	     -0.14531920	     -0.91930981	      1.23107702	     -0.06328750	      0.83070365	     -1.14837190	      4.35410608	      4.47239583	      0.07805803	      4.77412183	     -6.95831375	     -6.07576285	     -0.17510155	     -1.40439094	      2.34161971	      2.06904434	      0.03611164	      5.22599218	     -0.27642766	     -6.07576285	     -9.60518896	      0.70211685	     -1.36814479	      6.78688316	    -10.81365085	     24.59856967	     23.99771968	     70.25001866	      1.94183805	    -10.92921199	     19.65559254	     33.75584199	     71.01574302
      0.01250000	     -0.10906559	      0.37311453	     -0.24783384	     -0.91931726	      1.23170911	     -0.06241306	      0.14804420	     -1.43309817	      4.20948275	      3.88826576	      0.06786304	      4.92570240	     -6.35462193	     -6.25686121	     -0.89021576	     -1.14462333	      2.65791199	      1.53459212	      0.02678369	      4.81746897	     -0.43560198	     -6.25686121	    -10.00835310	      0.25917808	     -1.14502725	      6.65789963	    -10.66056780	     23.99810203	     23.78799799	     69.58316438	      2.02449891	    -10.98916667	     19.40432604	     33.30754125	     70.49268621
      0.01666670	      0.30855572	      0.48146958	     -0.30740504	     -0.91995200	      1.23262959	     -0.06171322	     -0.52999111	     -1.49039166	      4.43518323	      3.38860006	      0.05914223	      4.91744595	     -6.42186249	     -6.67654161	     -1.53544325	     -1.04941115	      2.89226676	      1.13474293	      0.01980500	      4.58259127	     -0.79839014	     -6.67654161	    -10.75535377	      0.04607254	     -0.87258147	      6.20747542	    -10.49361571	     21.91872446	     24.66130453	     68.52647607	      1.91295299	    -11.10794431	     19.28026008	     33.85368318	     69.92445943
      0.02083330	      0.47742932	      0.64240165	     -0.32644772	     -0.92138382	      1.23222128	     -0.06225084	     -0.79751714	     -1.64415106	      4.52998354	      3.12764878	      0.05458777	      5.04645540	     -6.37546281	     -7.07383598	     -1.66102674	     -0.88495499	      3.20054317	      1.05467411	      0.01840754	      4.38858296	     -1.19746590	     -7.07383598	    -11.11119303	     -0.16344190	     -0.56562672	      5.56514682	    -10.03593750	     17.36713166	     25.17133167	     73.15842628	      1.92727372	    -10.83731812	     17.21520911	     33.68790331	     74.88901919
